Coordinates
version=1
nRows=8
nColumns=36
inDegrees=yes

Units are S.I. units (second, meters, Newtons, ...)
If the header above contains a line with 'inDegrees', this indicates whether rotational values are in degrees (yes) or radians (no).

endheader
time	pelvis_tilt	pelvis_list	pelvis_rotation	pelvis_tx	pelvis_ty	pelvis_tz	hip_flexion_r	hip_adduction_r	hip_rotation_r	knee_angle_r	knee_angle_r_beta	ankle_angle_r	subtalar_angle_r	mtp_angle_r	hip_flexion_l	hip_adduction_l	hip_rotation_l	knee_angle_l	knee_angle_l_beta	ankle_angle_l	subtalar_angle_l	mtp_angle_l	lumbar_extension	lumbar_bending	lumbar_rotation	arm_flex_r	arm_add_r	arm_rot_r	elbow_flex_r	pro_sup_r	arm_flex_l	arm_add_l	arm_rot_l	elbow_flex_l	pro_sup_l
      1.66666670	     -5.34211700	     -0.01418519	      6.96588242	      0.00833541	      1.22323205	      0.12782794	      3.07152078	      0.70034541	     -8.80693234	      4.96925353	      0.08672984	     11.33699935	     -7.42494381	     -7.49999987	      1.69193849	     -1.53914995	     -8.42070107	      1.50047343	      0.02618820	      6.65260678	      0.38956573	     -7.49999987	     -4.15564068	      1.34691772	     -2.79877071	      0.12581201	     -7.57737492	     -8.25229776	     30.94931025	     87.50875676	      0.57314028	     -7.75533166	     -2.75275417	     32.17879049	     91.35700409
      1.68333330	     -5.35156354	     -0.02210991	      6.96308272	      0.00821403	      1.22248183	      0.12795994	      3.04037995	      0.71385492	     -8.86244639	      4.92949979	      0.08603600	     11.34698710	     -7.39051389	     -7.49999987	      1.69938272	     -1.56633255	     -8.41217631	      1.54608403	      0.02698426	      6.61952349	      0.26470492	     -7.49999987	     -4.15590520	      1.33994371	     -2.76406113	      0.06182438	     -7.57843722	     -8.25508017	     30.89449726	     87.57034071	      0.53771808	     -7.75708342	     -2.79840588	     32.26696183	     91.36430534
      1.70000000	     -5.36459379	     -0.02469767	      6.97763656	      0.00807476	      1.22231237	      0.12784780	      3.03938437	      0.71193747	     -8.88728360	      4.90638729	      0.08563261	     11.38438492	     -7.45120641	     -7.49999987	      1.72440043	     -1.57692258	     -8.38676625	      1.56380613	      0.02729357	      6.54657222	      0.14041713	     -7.49999987	     -4.15275689	      1.32904568	     -2.72759242	     -0.00909884	     -7.58573451	     -8.24775324	     30.88222773	     87.45665992	      0.54571118	     -7.77210529	     -2.69576743	     32.25318311	     91.28997838
      1.71666670	     -5.37696155	     -0.01522218	      6.99161450	      0.00819018	      1.22252563	      0.12823332	      2.99551701	      0.70668924	     -8.93658426	      4.79142778	      0.08362619	     11.37459149	     -7.49638069	     -7.49999987	      1.72966569	     -1.58317973	     -8.35241936	      1.57505850	      0.02748996	      6.49663624	      0.03789216	     -7.49999987	     -4.15499087	      1.29888602	     -2.72118129	     -0.05562439	     -7.55698378	     -8.29989857	     30.83657796	     87.54016119	      0.52274773	     -7.79964107	     -2.71952200	     32.33532277	     91.38535211
      1.73333330	     -5.44146714	     -0.00926697	      7.02580556	      0.00843180	      1.22185353	      0.12801813	      3.05591156	      0.70349507	     -8.84456860	      4.68258156	      0.08172647	     11.45149178	     -7.54950231	     -7.49999987	      1.79249518	     -1.57990831	     -8.32704096	      1.58001979	      0.02757655	      6.52874880	     -0.03585838	     -7.49999987	     -4.06529462	      1.27370247	     -2.63155418	     -0.20041194	     -7.57034386	     -8.25374261	     30.82265106	     87.34026351	      0.55897185	     -7.84661910	     -2.46875656	     32.29902085	     91.15462059
      1.75000000	     -5.39888618	      0.00279977	      7.01575474	      0.00848273	      1.22172518	      0.12804769	      2.95816281	      0.69776143	     -8.81274522	      4.55666596	      0.07952882	     11.60506123	     -7.30268625	     -7.49999987	      1.73789164	     -1.59162522	     -8.45386272	      1.58717124	      0.02770136	      6.57998875	      0.08575171	     -7.49999987	     -4.08714730	      1.24561131	     -2.62216785	     -0.22594079	     -7.80734065	     -6.64676175	     30.77112893	     83.82354850	      0.56354555	     -8.14320138	     -0.84814872	     32.32388492	     87.51982819
      1.76666670	     -5.45915391	      0.01086647	      7.08770494	      0.00868971	      1.22222540	      0.12804724	      2.96458766	      0.68988835	     -8.83215934	      4.43603274	      0.07742338	     11.58100833	     -7.36130855	     -7.49999987	      1.80454420	     -1.56812862	     -8.23302565	      1.57780233	      0.02753785	      6.48022701	     -0.08232607	     -7.49999987	     -4.05830350	      1.24312284	     -2.63215950	     -0.34618156	     -7.54791908	     -8.20406458	     30.90157882	     86.93660327	      0.51488127	     -7.94448914	     -2.27114763	     32.40705376	     90.84008728
      1.78333330	     -5.54083026	     -0.01881822	      7.04930091	      0.00865673	      1.22179760	      0.12820600	      3.02259255	      0.72043064	     -8.74039410	      4.41415610	      0.07704156	     11.63151962	     -7.34333660	     -7.49999987	      1.89108147	     -1.60296308	     -8.35899601	      1.61200336	      0.02813477	      6.63245787	      0.13996492	     -7.49999987	     -3.85496228	      1.25916881	     -2.49102313	     -0.27994048	     -7.62443552	     -7.18252847	     30.40717101	     78.99503423	      0.61731344	     -7.95493235	     -1.07381438	     32.08465430	     82.58220583
